Coordinates
version=1
nRows=8
nColumns=40
inDegrees=yes

Units are S.I. units (second, meters, Newtons, ...)
Angles are in degrees.

endheader
time	pelvis_tilt	pelvis_list	pelvis_rotation	pelvis_tx	pelvis_ty	pelvis_tz	hip_flexion_r	hip_adduction_r	hip_rotation_r	knee_angle_r	knee_angle_r_beta	ankle_angle_r	subtalar_angle_r	mtp_angle_r	hip_flexion_l	hip_adduction_l	hip_rotation_l	knee_angle_l	knee_angle_l_beta	ankle_angle_l	subtalar_angle_l	mtp_angle_l	lumbar_extension	lumbar_bending	lumbar_rotation	arm_flex_r	arm_add_r	arm_rot_r	elbow_flex_r	pro_sup_r	wrist_flex_r	wrist_dev_r	arm_flex_l	arm_add_l	arm_rot_l	elbow_flex_l	pro_sup_l	wrist_flex_l	wrist_dev_l
     32.26000000	     -3.88973865	     -5.27341959	      5.97695546	      0.96359267	      0.91694853	      0.53347211	     -2.02513087	      3.73158844	    -18.01196549	     16.55395890	     16.55395890	     19.35755805	     -1.65486636	     -1.49132392	     28.31195084	     -5.94711642	      4.53548762	     29.49396121	     29.49396121	      8.50674972	    -14.47346241	      5.22611730	     -8.29802601	      4.34210481	      4.00805307	     58.76308196	    -16.18649867	     -3.05343979	     88.25322409	     44.59174108	      0.00000000	      0.00000000	    -13.10289456	    -10.50402592	      4.55855944	     44.23519948	     44.46547620	      0.00000000	      0.00000000
     32.27885714	     -3.96796120	     -5.05635281	      5.39418178	      0.96405988	      0.91802595	      0.52921008	     -1.90199004	      2.89724685	    -17.76797603	     17.51792790	     17.51792790	     19.15242071	     -1.34597167	     -1.82604149	     27.64629865	     -5.72308977	      3.76353900	     29.28315859	     29.28315859	      8.99204364	    -14.35880842	      5.27457063	     -8.17317017	      4.13898465	      4.68163664	     57.88562375	    -16.66843067	     -3.39391637	     86.11574089	     44.67745428	      0.00000000	      0.00000000	    -12.04677191	    -10.62783153	      4.08805238	     45.19053225	     44.55449700	      0.00000000	      0.00000000
     32.29771429	     -4.07870552	     -4.97962400	      4.86550889	      0.96444032	      0.91910101	      0.52488452	     -1.66723716	      2.20852519	    -17.54752284	     18.53747951	     18.53747951	     18.80395594	     -1.17559028	     -2.19957116	     27.03934852	     -5.60314435	      3.08937641	     29.04131201	     29.04131201	      9.46507490	    -14.22897245	      5.24145294	     -8.07846927	      4.10879835	      4.73700268	     57.07046395	    -16.57591037	     -3.59289622	     84.44899906	     44.74212820	      0.00000000	      0.00000000	    -11.22857185	    -10.73715039	      3.74272103	     45.89571818	     44.62391303	      0.00000000	      0.00000000
     32.31657143	     -4.16452166	     -4.94974771	      4.36364898	      0.96474077	      0.92022418	      0.52054620	     -1.31205750	      1.53777988	    -17.33455505	     19.74476031	     19.74476031	     17.98862377	     -1.24777464	     -3.70195173	     26.40598174	     -5.52991038	      2.41089355	     28.76565810	     28.76565810	      9.95719068	    -13.97086420	      5.16822511	     -7.95204338	      4.15399887	      4.01695921	     56.86133686	    -15.24962666	     -4.05418532	     80.73085126	     44.90875151	      0.00000000	      0.00000000	    -10.87636735	    -10.81122975	      2.66998693	     46.99461693	     44.84684468	      0.00000000	      0.00000000
     32.33542857	     -4.23608188	     -4.81827473	      3.86119275	      0.96496624	      0.92154850	      0.51618279	     -0.70771173	      0.71480489	    -16.94556210	     21.44921375	     21.44921375	     17.46209810	     -1.61280480	     -4.21090730	     25.60609438	     -5.36122933	      1.60648725	     28.21194109	     28.21194109	     10.31161570	    -13.60329906	      5.01221098	     -7.95131860	      4.07987184	      3.98393417	     55.50758799	    -15.37100853	     -4.10022475	     79.50132669	     44.94984873	      0.00000000	      0.00000000	     -9.75890739	    -10.97947963	      2.41750381	     47.44110582	     44.90290262	      0.00000000	      0.00000000
     32.35428571	     -4.30620498	     -4.70992984	      3.37696356	      0.96511024	      0.92282035	      0.51184255	      0.14272632	     -0.12572855	    -16.51681265	     23.56157983	     23.56157983	     16.74672072	     -2.24100435	     -4.96754990	     24.81709762	     -5.20209288	      0.82706293	     27.65477173	     27.65477173	     10.66974496	    -13.15740945	      4.74371553	     -7.90951051	      4.03508983	      3.90746904	     54.05955969	    -15.39148503	     -4.28064807	     77.85895405	     45.00832983	      0.00000000	      0.00000000	     -8.51694001	    -11.18385160	      2.26270659	     47.76157554	     44.94979697	      0.00000000	      0.00000000
     32.37314286	     -4.37418976	     -4.57994069	      2.92406408	      0.96512478	      0.92403594	      0.50750694	      1.23267712	     -1.00346242	    -16.01220745	     26.04769549	     26.04769549	     15.79195086	     -3.29813058	     -6.03035901	     24.02734438	     -5.01245031	     -0.01595902	     27.05477512	     27.05477512	     10.95122719	    -12.67944637	      4.39935512	     -7.86711728	      4.02433592	      3.72063532	     52.49864772	    -15.30448474	     -4.56778662	     75.84387187	     45.08240652	      0.00000000	      0.00000000	     -7.14475524	    -11.41560978	      2.24675217	     47.89141388	     44.98564015	      0.00000000	      0.00000000
     32.39200000	     -4.33483408	     -4.42627667	      2.52174693	      0.96518012	      0.92535242	      0.50317470	      2.37604879	     -1.90381517	    -15.50951500	     28.80255820	     28.80255820	     14.65578737	     -4.56065303	     -6.96660664	     23.10735999	     -4.75927606	     -0.76554594	     26.42118023	     26.42118023	     11.24288648	    -12.23824432	      4.10818625	     -7.93952302	      3.97764227	      3.38371460	     50.63870706	    -15.12254700	     -4.72756239	     74.01381008	     45.14322882	      0.00000000	      0.00000000	     -5.71468617	    -11.67897606	      2.30679848	     47.98064930	     45.00869320	      0.00000000	      0.00000000
